<?xml version="1.0" encoding="iso-8859-1"?>
<!-- Generator: Adobe Illustrator 16.0.0, SVG Export Plug-In . SVG Version: 6.00 Build 0)  -->
<!DOCTYPE svg PUBLIC "-//W3C//DTD SVG 1.1//EN" "http://www.w3.org/Graphics/SVG/1.1/DTD/svg11.dtd">
<svg version="1.1" id="Capa_1" xmlns="http://www.w3.org/2000/svg" xmlns:xlink="http://www.w3.org/1999/xlink" x="0px" y="0px"
	 width="36.532px" height="36.532px" viewBox="0 0 36.532 36.532" style="enable-background:new 0 0 36.532 36.532;"
	 xml:space="preserve">
<g>
	<path d="M19.954,19.032l2.22,2.219l-2.22,2.219v-1.127h-5.592v-2.182h5.592V19.032z M16.578,15.233l-2.219,2.22l2.219,2.219v-1.128
		h5.592v-2.182h-5.592V15.233z M7.289,18.797c-0.144-0.091-0.377-0.164-0.697-0.226l-0.738-0.135l-0.229,1.227
		c-0.026,0.175-0.039,0.278-0.036,0.312c0.005,0.039,0.024,0.069,0.051,0.088c0.03,0.021,0.112,0.047,0.252,0.07l0.413,0.08
		c0.238,0.043,0.443,0.059,0.609,0.043c0.168-0.017,0.319-0.084,0.457-0.203c0.136-0.119,0.224-0.277,0.262-0.478
		c0.027-0.168,0.018-0.315-0.038-0.447C7.537,19,7.437,18.885,7.289,18.797z M7.634,16.546c-0.132-0.069-0.377-0.14-0.742-0.209
		l-0.62-0.115l-0.259,1.382l0.62,0.118c0.326,0.06,0.574,0.078,0.738,0.054c0.166-0.027,0.297-0.088,0.397-0.181
		c0.097-0.096,0.161-0.216,0.187-0.358c0.029-0.15,0.018-0.282-0.037-0.404C7.864,16.714,7.77,16.619,7.634,16.546z M13.144,18.266
		c0,3.631-2.942,6.571-6.571,6.571S0,21.897,0,18.266c0-3.629,2.943-6.57,6.572-6.57C10.201,11.696,13.144,14.637,13.144,18.266z
		 M9.277,16.529c-0.112-0.243-0.298-0.448-0.558-0.616c-0.1-0.067-0.225-0.124-0.362-0.179l0.188-1l-0.961-0.179L7.41,15.488
		l-0.617-0.115l0.175-0.934l-0.961-0.182L5.83,15.195l-1.464-0.276L4.22,15.701l0.223,0.046c0.15,0.024,0.25,0.058,0.298,0.096
		c0.047,0.038,0.08,0.08,0.088,0.132c0.015,0.049,0.008,0.156-0.024,0.326l-0.593,3.163c-0.029,0.166-0.06,0.27-0.09,0.312
		c-0.035,0.043-0.076,0.072-0.133,0.09c-0.058,0.016-0.16,0.01-0.31-0.02L3.45,19.805l-0.145,0.783L4.77,20.86l-0.172,0.935
		l0.959,0.183l0.174-0.935l0.544,0.103c0.025,0.006,0.05,0.008,0.073,0.012l-0.174,0.936l0.961,0.178l0.188-1.01
		c0.166-0.004,0.314-0.018,0.444-0.041C8.123,21.151,8.416,21,8.646,20.782c0.228-0.217,0.371-0.479,0.427-0.779
		c0.047-0.25,0.03-0.49-0.049-0.715c-0.082-0.229-0.216-0.418-0.396-0.57c-0.125-0.105-0.314-0.222-0.567-0.336
		c0.267-0.04,0.483-0.105,0.657-0.207c0.175-0.104,0.32-0.229,0.43-0.381c0.111-0.154,0.188-0.325,0.223-0.512
		C9.418,17.024,9.387,16.772,9.277,16.529z M36.532,18.266c0,3.631-2.942,6.571-6.57,6.571c-3.631,0-6.571-2.939-6.571-6.571
		c0-3.629,2.94-6.57,6.571-6.57C33.588,11.692,36.532,14.637,36.532,18.266z M32.409,19.721c0-1.002-0.535-1.613-1.856-2.08
		c-0.945-0.354-1.334-0.59-1.334-0.955c0-0.312,0.231-0.623,0.955-0.623c0.801,0,1.312,0.256,1.602,0.379l0.322-1.256
		c-0.367-0.18-0.867-0.334-1.612-0.367v-0.979h-1.089v1.058c-1.188,0.232-1.879,1-1.879,1.979c0,1.078,0.812,1.633,2,2.034
		c0.824,0.276,1.178,0.545,1.178,0.967c0,0.445-0.432,0.688-1.062,0.688c-0.726,0-1.382-0.233-1.849-0.489l-0.332,1.301
		c0.42,0.244,1.144,0.445,1.89,0.479v1.055h1.09v-1.131C31.705,21.555,32.409,20.708,32.409,19.721z"/>
</g>
<g>
</g>
<g>
</g>
<g>
</g>
<g>
</g>
<g>
</g>
<g>
</g>
<g>
</g>
<g>
</g>
<g>
</g>
<g>
</g>
<g>
</g>
<g>
</g>
<g>
</g>
<g>
</g>
<g>
</g>
</svg>
